<svg width="24" height="24" viewBox="0 0 24 24" fill="none" xmlns="http://www.w3.org/2000/svg">
<path d="M9.72457 5.58224C9.91865 5.45407 10.1826 5.47583 10.3535 5.64669C10.5243 5.81756 10.5461 6.08152 10.4179 6.2756L10.3535 6.35372L7.70699 9.00021H11.5C15.0761 9.00021 18 11.9241 18 15.5002V17.5002C18 17.7763 17.7761 18.0002 17.5 18.0002C17.2238 18.0002 17 17.7763 17 17.5002V15.5002C17 12.4763 14.5238 10.0002 11.5 10.0002H7.70699L10.3535 12.6467L10.4179 12.7248C10.5461 12.9189 10.5243 13.1829 10.3535 13.3537C10.1826 13.5246 9.91865 13.5463 9.72457 13.4182L9.64645 13.3537L6.14645 9.85372C5.95118 9.65846 5.95118 9.34195 6.14645 9.14669L9.64645 5.64669L9.72457 5.58224Z" fill="black" fill-opacity="0.9"/>
</svg>
