<svg width="14" height="18" viewBox="0 0 14 18" fill="none" xmlns="http://www.w3.org/2000/svg">
<path fill-rule="evenodd" clip-rule="evenodd" d="M2 17H12C12.5523 17 13 16.5523 13 16L13 6H10C8.89543 6 8 5.10457 8 4V1.49902V1L1.99999 1.00004C1.44771 1.00005 1 1.44776 1 2.00004V16C1 16.5523 1.44771 17 2 17ZM9 1.44603L12.5805 5H10C9.44772 5 9 4.55228 9 4V1.49902V1.44603ZM12 18H2C0.89543 18 0 17.1046 0 16V2.00004C0 0.895476 0.895423 4.90502e-05 1.99999 4.1777e-05L8.34461 0C8.74051 -4.06943e-06 9.12035 0.156505 9.40133 0.435402L13.5567 4.55999C13.8404 4.84161 14 5.22483 14 5.62459L14 16C14 17.1046 13.1046 18 12 18ZM7.05078 7C7.32692 7 7.55078 7.22386 7.55078 7.5V9.5498H9.5C9.77614 9.5498 10 9.77366 10 10.0498C10 10.3259 9.77614 10.5498 9.5 10.5498H7.55078V12.5C7.55078 12.7761 7.32692 13 7.05078 13C6.77464 13 6.55078 12.7761 6.55078 12.5V10.5498H4.5C4.22386 10.5498 4 10.3259 4 10.0498C4 9.77366 4.22386 9.5498 4.5 9.5498H6.55078V7.5C6.55078 7.22386 6.77464 7 7.05078 7Z" fill="black" fill-opacity="0.9"/>
</svg>
