<svg width="24" height="24" viewBox="0 0 24 24" fill="none" xmlns="http://www.w3.org/2000/svg">
<path d="M8.41171 8.21875C8.76079 8.21875 9.07279 8.43752 9.19199 8.76562L11.566 15.2988C11.6898 15.6396 11.4373 16.0007 11.0748 16.001C10.8526 16.001 10.6541 15.8601 10.5807 15.6504L9.95761 13.8691H6.86386L6.23984 15.6504C6.1664 15.8599 5.96862 16.0009 5.74667 16.001C5.38387 16.001 5.13144 15.6398 5.25546 15.2988L7.63242 8.76465C7.75177 8.43703 8.06302 8.21888 8.41171 8.21875ZM15.4996 8C16.5359 8 17.4336 8.56649 17.9664 9.39844C18.1153 9.63101 18.0476 9.94096 17.815 10.0898C17.5826 10.2385 17.2736 10.1707 17.1246 9.93848C16.7525 9.35716 16.1542 9 15.4996 9C14.439 9.00025 13.4996 9.96161 13.4996 11.25V12.75C13.4996 14.0384 14.439 14.9998 15.4996 15C16.5604 15 17.4996 14.0386 17.4996 12.75V12.5H15.9996C15.7236 12.4998 15.4996 12.276 15.4996 12C15.4996 11.724 15.7236 11.5002 15.9996 11.5H17.9996C18.2757 11.5 18.4996 11.7239 18.4996 12V12.75C18.4996 14.499 17.2002 16 15.4996 16C13.7992 15.9998 12.4996 14.4989 12.4996 12.75V11.25C12.4996 9.50113 13.7992 8.00024 15.4996 8ZM8.41171 9.54102C8.39381 9.5412 8.37774 9.55248 8.37167 9.56934L7.18417 12.957H9.63828L8.45273 9.56934C8.44662 9.55233 8.42981 9.54102 8.41171 9.54102Z" fill="black" fill-opacity="0.9"/>
</svg>
