<svg width="24" height="24" viewBox="0 0 24 24" fill="none" xmlns="http://www.w3.org/2000/svg">
<path fill-rule="evenodd" clip-rule="evenodd" d="M10.5 6C12.9853 6 15 8.01472 15 10.5C15 12.9853 12.9853 15 10.5 15C8.01472 15 6 12.9853 6 10.5C6 8.01472 8.01472 6 10.5 6ZM10.2168 15.9932L10.5 16C11.8502 16 13.0869 15.5135 14.0441 14.7061C14.0549 14.73 14.0676 14.7531 14.0823 14.7754L14.1467 14.8535L17.1467 17.8535L17.2249 17.9179C17.4189 18.0461 17.6829 18.0244 17.8538 17.8535C18.0246 17.6826 18.0464 17.4187 17.9182 17.2246L17.8538 17.1465L14.8538 14.1465L14.7756 14.082C14.7534 14.0673 14.7303 14.0546 14.7064 14.0439C15.457 13.154 15.9303 12.0228 15.9932 10.7832L16 10.5C16 7.55741 13.6892 5.15422 10.7832 5.00684L10.5 5C7.46243 5 5 7.46243 5 10.5L5.00684 10.7832C5.14946 13.5954 7.40463 15.8505 10.2168 15.9932Z" fill="currentColor"/>
</svg>
