<svg width="24" height="24" viewBox="0 0 24 24" fill="none" xmlns="http://www.w3.org/2000/svg">
<path d="M6.61964 15.7318C6.54618 15.9414 6.34836 16.0816 6.12632 16.0816C5.76352 16.0816 5.51103 15.7211 5.63506 15.3802L8.01198 8.84601C8.13127 8.51809 8.44295 8.2998 8.7919 8.2998C9.14098 8.2998 9.45274 8.51825 9.57193 8.84635L11.9456 15.3803C12.0695 15.7212 11.8169 16.0816 11.4542 16.0816C11.232 16.0816 11.0341 15.9412 10.9607 15.7315L8.83247 9.6508C8.82645 9.63362 8.81023 9.62211 8.79202 9.62211C8.77382 9.62211 8.7576 9.63361 8.75158 9.65078L6.61964 15.7318ZM6.78198 13.494C6.78198 13.2422 6.98612 13.0381 7.23795 13.0381H10.3385C10.5903 13.0381 10.7945 13.2422 10.7945 13.494C10.7945 13.7458 10.5903 13.95 10.3385 13.95H7.23795C6.98612 13.95 6.78198 13.7458 6.78198 13.494Z" fill="black" fill-opacity="0.9"/>
<path d="M15.5198 18.3919C15.0714 18.3919 14.6864 18.3336 14.3647 18.2171C14.0429 18.1031 13.777 17.9511 13.5667 17.7611C13.495 17.6955 13.429 17.6281 13.3687 17.5588C13.1859 17.3487 13.2839 17.0405 13.5294 16.9089C13.7587 16.786 14.044 16.8546 14.2182 17.0478C14.2201 17.05 14.2221 17.0522 14.2241 17.0543C14.3457 17.1861 14.5103 17.3001 14.718 17.3963C14.9257 17.4926 15.1955 17.5407 15.5274 17.5407C15.9783 17.5407 16.3506 17.4305 16.6445 17.2101C16.9383 16.9923 17.0853 16.6478 17.0853 16.1766V15.0581C17.0853 15.0316 17.0638 15.0101 17.0373 15.0101C17.02 15.0101 17.004 15.0194 16.9953 15.0344C16.9302 15.1453 16.8399 15.2728 16.7243 15.4167C16.6002 15.5687 16.4254 15.7029 16.1999 15.8194C15.977 15.9334 15.6819 15.9904 15.3146 15.9904C14.8485 15.9904 14.4292 15.8815 14.0569 15.6637C13.687 15.4433 13.3945 15.1203 13.1791 14.6947C12.9638 14.2692 12.8562 13.7499 12.8562 13.1368C12.8562 12.5289 12.9613 12.0033 13.1715 11.56C13.3818 11.1141 13.6731 10.7709 14.0455 10.5302C14.4179 10.2896 14.8447 10.1693 15.326 10.1693C15.6984 10.1693 15.996 10.2313 16.2189 10.3555C16.4418 10.477 16.6141 10.6176 16.7357 10.7772C16.8504 10.9248 16.9414 11.0507 17.0085 11.1549C17.0185 11.1705 17.0357 11.18 17.0542 11.18C17.0839 11.18 17.108 11.1559 17.108 11.1262V10.7126C17.108 10.4545 17.3173 10.2453 17.5754 10.2453H17.6039C17.8778 10.2453 18.0998 10.4673 18.0998 10.7411V16.2298C18.0998 16.7314 17.9845 17.1405 17.754 17.4571C17.526 17.7763 17.217 18.0119 16.8269 18.1639C16.4368 18.3159 16.0011 18.3919 15.5198 18.3919ZM15.5008 15.1165C15.8453 15.1165 16.1353 15.038 16.3709 14.8809C16.609 14.7213 16.7901 14.4921 16.9143 14.1932C17.0384 13.8943 17.1004 13.5371 17.1004 13.1216C17.1004 12.7138 17.0397 12.3554 16.9181 12.0463C16.7965 11.7373 16.6166 11.4954 16.3785 11.3206C16.1404 11.1433 15.8478 11.0546 15.5008 11.0546C15.1411 11.0546 14.8409 11.1471 14.6002 11.332C14.3596 11.5169 14.1785 11.7651 14.0569 12.0767C13.9378 12.3883 13.8783 12.7366 13.8783 13.1216C13.8783 13.5168 13.9391 13.8639 14.0607 14.1628C14.1848 14.4617 14.3659 14.696 14.604 14.8657C14.8447 15.0329 15.1436 15.1165 15.5008 15.1165Z" fill="black" fill-opacity="0.9"/>
</svg>
