<svg width="24" height="24" viewBox="0 0 24 24" fill="none" xmlns="http://www.w3.org/2000/svg">
<path d="M6 16.5V15.5C6 15.2239 6.22386 15 6.5 15C6.77614 15 7 15.2239 7 15.5V16.5C7 16.7761 7.22386 17 7.5 17H16.5C16.7761 17 17 16.7761 17 16.5V15.5C17 15.2239 17.2239 15 17.5 15C17.7761 15 18 15.2239 18 15.5V16.5C18 17.3284 17.3284 18 16.5 18H7.5C6.67157 18 6 17.3284 6 16.5ZM11.5 5.5C11.5 5.22386 11.7239 5 12 5C12.2761 5 12.5 5.22386 12.5 5.5V12.293L14.6465 10.1465C14.8417 9.95122 15.1583 9.95122 15.3535 10.1465C15.5488 10.3417 15.5488 10.6583 15.3535 10.8535L12.3535 13.8535C12.1583 14.0488 11.8417 14.0488 11.6465 13.8535L8.64648 10.8535L8.58203 10.7754C8.45387 10.5813 8.47562 10.3173 8.64648 10.1465C8.81735 9.97562 9.08131 9.95387 9.27539 10.082L9.35352 10.1465L11.5 12.293V5.5Z" fill="black" fill-opacity="0.9"/>
</svg>
