<svg width="24" height="24" viewBox="0 0 24 24" fill="none" xmlns="http://www.w3.org/2000/svg">
<path d="M16.1895 14.7422C16.2703 14.4191 16.7298 14.4191 16.8106 14.7422L17.0996 15.9004L18.2578 16.1905C18.581 16.2713 18.581 16.7298 18.2578 16.8106L17.0996 17.1006L16.8106 18.2588C16.7298 18.5819 16.2704 18.5818 16.1895 18.2588L15.8994 17.1006L14.7412 16.8106C14.4184 16.7296 14.4185 16.2715 14.7412 16.1905L15.8994 15.9004L16.1895 14.7422ZM10.4082 7.06156C10.9441 5.59377 13.0562 5.59363 13.5918 7.06156L13.6397 7.21293L14.3135 9.68558L16.7871 10.3604L16.9385 10.4082C18.4062 10.944 18.4061 13.056 16.9385 13.5918L16.7871 13.6397L14.3135 14.3135L13.6397 16.7871C13.1982 18.4049 10.9617 18.4554 10.4082 16.9385L10.3604 16.7871L9.68558 14.3135L7.21293 13.6397C5.54308 13.184 5.54309 10.8161 7.21293 10.3604L9.68558 9.68558L10.3604 7.21293L10.4082 7.06156ZM12.6758 7.4766C12.4882 6.78902 11.512 6.78915 11.3243 7.4766L10.5 10.5L7.4766 11.3243C6.78884 11.5118 6.78884 12.4882 7.4766 12.6758L10.5 13.5L11.3243 16.5235C11.5001 17.1682 12.3684 17.2087 12.6309 16.6446L12.6758 16.5235L13.5 13.5L16.5235 12.6758C17.1678 12.4998 17.2083 11.6317 16.6446 11.3692L16.5235 11.3243L13.5 10.5L12.6758 7.4766ZM7.18949 5.74125C7.27045 5.41834 7.72975 5.41822 7.81058 5.74125L8.09964 6.89945L9.25785 7.18949C9.581 7.27031 9.58102 7.72979 9.25785 7.81058L8.09964 8.09964L7.81058 9.25785C7.72979 9.58102 7.27031 9.581 7.18949 9.25785L6.89945 8.09964L5.74125 7.81058C5.41822 7.72975 5.41834 7.27045 5.74125 7.18949L6.89945 6.89945L7.18949 5.74125Z" fill="black" fill-opacity="0.9"/>
</svg>
