<svg width="24" height="24" viewBox="0 0 24 24" fill="none" xmlns="http://www.w3.org/2000/svg">
<path fill-rule="evenodd" clip-rule="evenodd" d="M8.29283 15.7072C8.05643 15.4708 7.95383 15.1319 8.0194 14.804L8.5194 12.3043C8.55812 12.1107 8.65327 11.9329 8.79286 11.7933L16.9393 3.64663C17.5251 3.0608 18.4749 3.06083 19.0607 3.64668L18.3535 4.35374C18.1583 4.15846 17.8417 4.15845 17.6464 4.35373L16.6037 5.39649L18.6038 7.39659L19.6464 6.35392C19.8417 6.15866 19.8417 5.8421 19.6465 5.64683L18.3535 4.35374L19.0607 3.64668L20.3536 4.93977C20.9393 5.52556 20.9393 6.47526 20.3536 7.06102L12.2071 15.2075C12.0675 15.3471 11.8896 15.4423 11.696 15.481L9.196 15.9807C8.86815 16.0463 8.52923 15.9436 8.29283 15.7072ZM9.49998 12.5004L15.8966 6.10361L17.8967 8.1037L11.5 14.5004L10.0623 14.7878L8.99998 15.0001L9.21245 13.9379L9.49998 12.5004ZM18 12.4498V18C18 18.5523 17.5523 19 17 19H6C5.44772 19 5 18.5523 5 18L5 7.00001C5 6.44773 5.44772 6.00001 6 6.00001L11.5503 6.00001C11.6829 6.00001 11.81 5.94733 11.9038 5.85357C12.2188 5.53858 11.9957 5.00001 11.5503 5.00001L6 5.00001C4.89543 5.00001 4 5.89544 4 7.00001L4 18C4 19.1046 4.89543 20 6 20H17C18.1046 20 19 19.1046 19 18V12.4498C19 12.0043 18.4614 11.7812 18.1464 12.0962C18.0527 12.19 18 12.3172 18 12.4498Z" fill="black" fill-opacity="0.9"/>
</svg>
