<svg width="24" height="24" viewBox="0 0 24 24" fill="none" xmlns="http://www.w3.org/2000/svg">
<path d="M17.5225 12.0243C17.7972 12.0505 17.9987 12.2945 17.9727 12.5692C17.6581 15.8679 14.7293 18.2879 11.4307 17.9735C9.55504 17.7947 7.96563 16.7687 7 15.3134V17.4999C7 17.776 6.77614 17.9999 6.5 17.9999C6.22386 17.9999 6 17.776 6 17.4999V14.4999C6.00023 14.224 6.224 13.9999 6.5 13.9999H10C10.276 13.9999 10.4998 14.224 10.5 14.4999C10.5 14.776 10.2761 14.9999 10 14.9999H8.00098C8.81648 16.0864 10.0676 16.8384 11.5254 16.9774C14.2743 17.2395 16.7154 15.2235 16.9775 12.4745C17.0038 12.1998 17.2477 11.9982 17.5225 12.0243ZM17.5 5.9999C17.7761 5.9999 17.9999 6.22387 18 6.4999V9.4999C18 9.77604 17.7761 9.9999 17.5 9.9999H14C13.7239 9.9999 13.5 9.77604 13.5 9.4999C13.5001 9.22387 13.7239 8.9999 14 8.9999H15.998C15.1825 7.91376 13.9321 7.16132 12.4746 7.02236C9.72574 6.76028 7.28469 8.77648 7.02246 11.5253C6.99626 11.8001 6.75238 12.0016 6.47754 11.9755C6.20264 11.9493 6.00113 11.7055 6.02734 11.4306C6.34192 8.13193 9.27069 5.71282 12.5693 6.02724C14.4448 6.20606 16.0343 7.23125 17 8.68642V6.4999C17.0001 6.22387 17.2239 5.9999 17.5 5.9999Z" fill="black" fill-opacity="0.9"/>
</svg>
