<svg width="242" height="280" viewBox="0 0 242 280" fill="none" xmlns="http://www.w3.org/2000/svg">
<path d="M242 70C242 108.66 210.66 140 172 140C133.341 140 102 108.66 102 70C102 31.3401 133.341 0 172 0C210.66 0 242 31.3401 242 70Z" fill="black"/>
<path d="M242 210C242 248.66 210.66 280 172 280C133.341 280 102 248.66 102 210C102 171.34 133.341 140 172 140C210.66 140 242 171.34 242 210Z" fill="black"/>
<path d="M44.6605 94.99C44.6605 90.2367 45.8105 86.48 48.1105 83.72C50.5638 80.8067 53.8605 79.35 58.0005 79.35C62.1405 79.35 65.3605 80.8067 67.6605 83.72C70.1138 86.48 71.3405 90.2367 71.3405 94.99V181.7C71.3405 186.453 70.1138 190.287 67.6605 193.2C65.3605 195.96 62.1405 197.34 58.0005 197.34C53.8605 197.34 50.5638 195.96 48.1105 193.2C45.8105 190.287 44.6605 186.453 44.6605 181.7V94.99ZM15.2205 150.88C10.7738 150.88 7.24714 149.807 4.64047 147.66C2.0338 145.36 0.730469 142.293 0.730469 138.46C0.730469 134.627 2.0338 131.637 4.64047 129.49C7.24714 127.19 10.7738 126.04 15.2205 126.04H100.78C105.227 126.04 108.754 127.19 111.36 129.49C113.967 131.637 115.27 134.627 115.27 138.46C115.27 142.293 113.967 145.36 111.36 147.66C108.754 149.807 105.227 150.88 100.78 150.88H15.2205Z" fill="black"/>
</svg>
